# AST/ASF file generated using VICON BodyLanguage
# -----------------------------------------------
:version 1.10
:name VICON
:units
  mass 1.0
  length 0.45
  angle deg
:documentation
   .ast/.asf automatically generated from VICON data using
   VICON BodyBuilder and BodyLanguage model FoxedUp or BRILLIANT.MOD
:root
   order TX TY TZ RX RY RZ
   axis XYZ
   position 0 0 0  
   orientation 0 0 0 
:bonedata
  begin
     id 1 
     name lhipjoint
     direction 0.606768 -0.715223 0.346827 
     length 2.41543 
     axis 0 0 0  XYZ
  end
  begin
     id 2 
     name lfemur
     direction 0.34202 -0.939693 0  
     length 7.2778  
     axis 0 0 20  XYZ
    dof rx ry rz
    limits (-160.0 20.0)
           (-70.0 70.0)
           (-60.0 70.0)
  end
  begin
     id 3 
     name ltibia
     direction 0.34202 -0.939693 0   
     length 7.61811   
     axis 0 0 20   XYZ
    dof rx
    limits (-10.0 170.0)
  end
  begin
     id 4 
     name lfoot
     direction 0.0823924 -0.226371 0.97055   
     length 2.33618   
     axis -90 7.62852e-016 20   XYZ
    dof rx rz
    limits (-45.0 90.0)
           (-70.0 20.0)
  end
  begin
     id 5 
     name ltoes
     direction 1.53554e-011 -4.21934e-011 1   
     length 1.17015   
     axis -90 7.62852e-016 20   XYZ
    dof rx
    limits (-90.0 20.0)
  end
  begin
     id 6 
     name rhipjoint
     direction -0.6077 -0.714582 0.346516   
     length 2.4176  
     axis 0 0 0  XYZ 
  end
  begin
     id 7 
     name rfemur
     direction -0.34202 -0.939693 0   
     length 7.28127   
     axis 0 0 -20   XYZ
    dof rx ry rz
    limits (-160.0 20.0)
           (-70.0 70.0)
           (-70.0 60.0)
  end
  begin
     id 8 
     name rtibia
     direction -0.34202 -0.939693 0   
     length 7.77648   
     axis 0 0 -20   XYZ
    dof rx
    limits (-10.0 170.0)
 end
 begin
     id 9 
     name rfoot
     direction -0.0809463 -0.222398 0.97159   
     length 2.37533  
     axis -90 -7.62852e-016 -20   XYZ
    dof rx rz
    limits (-45.0 90.0)
           (-20.0 70.0)
  end
  begin
     id 10 
     name rtoes
     direction -1.53568e-011 -4.21714e-011 1   
     length 1.18972   
     axis -90 -7.62852e-016 -20   XYZ
    dof rx
    limits (-90.0 20.0)
  end
  begin
     id 11 
     name lowerback
     direction 0.010968 0.991932 -0.126297   
     length 2.21698   
     axis 0 0 0   XYZ
    dof rx ry rz
    limits (-20.0 45.0)
           (-30.0 30.0)
           (-30.0 30.0)
  end
  begin
     id 12 
     name upperback
     direction 0.0167007 0.997503 -0.0686276   
     length 2.22371   
     axis 0 0 0   XYZ
    dof rx ry rz
    limits (-20.0 45.0)
           (-30.0 30.0)
           (-30.0 30.0)
  end
  begin
     id 13 
     name thorax
     direction 0.0111721 0.999885 -0.0102878   
     length 2.25242   
     axis 0 0 0   XYZ
    dof rx ry rz
    limits (-20.0 45.0)
           (-30.0 30.0)
           (-30.0 30.0)
  end
  begin
     id 14 
     name lowerneck
     direction -0.0120265 0.990428 0.137508   
     length 1.57674   
     axis 0 0 0   XYZ
    dof rx ry rz
    limits (-20.0 45.0)
           (-30.0 30.0)
           (-30.0 30.0)
  end
  begin
     id 15 
     name upperneck
     direction 0.0175669 0.998907 0.0433089   
     length 1.5618   
     axis 0 0 0   XYZ
    dof rx ry rz
    limits (-20.0 45.0)
           (-30.0 30.0)
           (-30.0 30.0)
  end
  begin
     id 16
     name head
     direction 0.00754609 0.99997 0.00185367  
     length 1.60579  
     axis 0 0 0   XYZ
    dof rx ry rz
    limits (-20.0 45.0)
           (-30.0 30.0)
           (-30.0 30.0)
  end
  begin
     id 17 
     name lclavicle
     direction 0.885866 0.429166 -0.176231  
     length 3.44967  
     axis 0 0 0   XYZ
    dof ry rz
    limits (-20.0 10.0)
           (0.0 20.0)
  end
  begin
     id 18 
     name lhumerus
     direction 1 -4.48973e-011 -1.90255e-027   
     length 5.20607   
     axis 180 -30 -90   XYZ
    dof rx ry rz
    limits (-60.0 90.0)
           (-90.0 90.0)
           (-90.0 90.0)
  end
  begin
     id 19
     name lradius
     direction 1 -4.48956e-011 9.87925e-027   
     length 3.39961   
     axis 180 -30 -90   XYZ
    dof rx
    limits (-10.0 170.0)
  end
  begin
     id 20
     name lwrist
     direction 1 -4.48985e-011 1.73247e-026   
     length 1.6998   
     axis -9.60847e-015 90 90   XYZ
    dof ry
    limits (-180.0 0.0)
 end
  begin
     id 21 
     name lhand
     direction 1 -4.48798e-011 3.46119e-026   
     length 0.519693   
     axis -2.21073e-014 90 90   XYZ
    dof rx rz
    limits (-90.0 90.0)
           (-45.0 45.0)
  end
  begin
     id 22 
     name lfingers
     direction 1 -4.48938e-011 6.92797e-026   
     length 0.41899   
     axis -4.42155e-014 90 90   XYZ
    dof rx
    limits (0.0 90.0)
  end
  begin
     id 23
     name lthumb
     direction 0.707107 -6.34952e-011 0.707107   
     length 0.601588   
     axis -90 45 6.0103e-014   XYZ
    dof rx rz
    limits (-45.0 45.0)
           (-45.0 45.0)
  end
  begin
     id 24 
     name rclavicle
     direction -0.866736 0.456792 -0.200276   
     length 3.45032  
     axis 0 0 0   XYZ 
    dof ry rz
    limits (-10.0 20.0)
           (-20.0 0.0)
  end
  begin
     id 25 
     name rhumerus
     direction -1 -4.4897e-011 8.65094e-028  
     length 5.32214   
     axis 180 30 90   XYZ
    dof rx ry rz
    limits (-90.0 60.0)
           (-90.0 90.0)
           (-90.0 90.0)
  end
  begin
     id 26 
     name rradius
     direction -1 -4.48987e-011 1.08427e-026   
     length 3.51208   
     axis 180 30 90   XYZ
    dof rx
    limits (-10.0 170.0)
  end
  begin
     id 27 
     name rwrist
     direction -1 -4.48961e-011 1.73222e-026   
     length 1.75604   
     axis -9.60847e-015 -90 -90   XYZ
    dof ry
    limits (-180.0 0.0)
  end
  begin
     id 28
     name rhand
     direction -1 -4.48895e-011 3.46314e-026   
     length 0.586681   
     axis -2.21073e-014 -90 -90   XYZ
    dof rx rz
    limits (-90.0 90.0)
           (-45.0 45.0)
  end
  begin
     id 29
     name rfingers
     direction -1 -4.48968e-011 6.92916e-026   
     length 0.472997   
     axis -4.42155e-014 -90 -90   XYZ
    dof rx
    limits (0.0 90.0)
  end
  begin
     id 30
     name rthumb
     direction -0.707107 -6.34848e-011 0.707107   
     length 0.679133   
     axis -90 -45 -6.0103e-014   XYZ
    dof rx rz
    limits (-45.0 45.0)
           (-45.0 45.0)
  end
:hierarchy
  begin
    root lhipjoint rhipjoint lowerback
    lhipjoint lfemur
    lfemur ltibia
    ltibia lfoot
    lfoot ltoes
    rhipjoint rfemur
    rfemur rtibia
    rtibia rfoot
    rfoot rtoes
    lowerback upperback
    upperback thorax
    thorax lowerneck lclavicle rclavicle
    lowerneck upperneck
    upperneck head
    lclavicle lhumerus
    lhumerus lradius
    lradius lwrist
    lwrist lhand lthumb
    lhand lfingers
    rclavicle rhumerus
    rhumerus rradius
    rradius rwrist
    rwrist rhand rthumb
    rhand rfingers
  end

#!OML:ASF H:\Dans Jumps\Project 1\Capture day 1\Session 1\subject.ASF
:FULLY-SPECIFIED
:DEGREES
1
root 0.167072 17.1497 -15.3197 15.1856 -1.42599 -2.47795
lowerback 10.5862 -0.245886 0.740252
upperback 8.19516 -0.29164 1.43103
thorax 2.61538 -0.157332 1.09197
lowerneck -9.33378 0.827232 -0.721497
upperneck 22.0699 1.42239 -0.73852
head 8.38506 0.53095 0.0142926
rclavicle -1.52816e-015 1.33186e-014
rhumerus -28.8544 -7.67984 -82.0841
rradius 34.2785
rwrist 18.6489
rhand -20.7979 -27.7046
rfingers 7.12502
rthumb 5.56952 -57.6114
lclavicle -1.52816e-015 1.33186e-014
lhumerus -28.2172 -6.19162 89.5245
lradius 28.995
lwrist 18.8183
lhand -28.4542 -4.71758
lfingers 7.12502
lthumb -1.82455 25.2544
rfemur -36.9044 -3.96624 21.3201
rtibia 37.2727
rfoot -14.6154 1.91923
rtoes 10.4267
lfemur -36.696 9.07374 -19.3541
ltibia 37.368
lfoot -14.2148 3.00762
ltoes 5.18308
2
root 0.160535 17.1554 -15.3181 15.2154 -1.42132 -2.43017
lowerback 10.6082 -0.254448 0.689168
upperback 8.23394 -0.306687 1.40448
thorax 2.64474 -0.166369 1.09444
lowerneck -9.32255 0.826229 -0.688202
upperneck 22.0254 1.42246 -0.775686
head 8.3685 0.530406 -0.00388321
rclavicle 3.97569e-015 -3.78933e-015
rhumerus -28.8186 -7.59482 -82.1244
rradius 34.2411
rwrist 18.726
rhand -20.7857 -27.672
rfingers 7.12502
rthumb 5.58121 -57.5785
lclavicle 3.97569e-015 -3.78933e-015
lhumerus -28.2359 -6.28329 89.6371
lradius 29.1349
lwrist 18.8008
lhand -27.7473 -3.37087
lfingers 7.12502
lthumb -1.14187 26.6058
rfemur -36.8895 -4.00294 21.2999
rtibia 37.1898
rfoot -14.5773 1.97505
rtoes 10.6444
lfemur -36.6534 9.08011 -19.392
ltibia 37.2333
lfoot -14.1459 2.99864
ltoes 5.18846
3
root 0.153561 17.1599 -15.3172 15.2984 -1.41285 -2.44753
lowerback 10.5982 -0.254355 0.688777
upperback 8.2241 -0.306505 1.39984
thorax 2.6397 -0.166138 1.08977
lowerneck -9.25004 0.815295 -0.686781
upperneck 21.9866 1.40284 -0.762785
head 8.34189 0.523111 -0.0021811
rclavicle -4.95719e-015 -4.47266e-015
rhumerus -28.8907 -7.45397 -82.1627
rradius 34.2742
rwrist 18.6778
rhand -20.8579 -27.5728
rfingers 7.12502
rthumb 5.51155 -57.4811
lclavicle -4.95719e-015 -4.47266e-015
lhumerus -28.3474 -6.52597 89.8394
lradius 29.1526
lwrist 18.9239
lhand -27.8124 -3.6143
lfingers 7.12502
lthumb -1.20471 26.362
rfemur -36.9268 -3.99457 21.3499
rtibia 37.0812
rfoot -14.5181 1.99314
rtoes 10.822
lfemur -36.6935 9.09459 -19.368
ltibia 37.1225
lfoot -14.0806 3.00631
ltoes 5.12264
4
root 0.146983 17.1655 -15.3142 15.3179 -1.36137 -2.45193
lowerback 10.5812 -0.265808 0.701418
upperback 8.25278 -0.321188 1.39772
thorax 2.67944 -0.172841 1.0816
lowerneck -9.19018 0.792017 -0.734775
upperneck 21.9244 1.36683 -0.712225
head 8.30912 0.507984 0.0188562
rclavicle 4.80189e-015 3.01904e-015
rhumerus -28.8669 -7.38446 -82.2051
rradius 34.2384
rwrist 18.6986
rhand -20.7815 -27.591
rfingers 7.12502
rthumb 5.58528 -57.4974
lclavicle 4.80189e-015 3.01904e-015
lhumerus -28.3919 -6.77973 90.0336
lradius 29.1637
lwrist 18.7555
lhand -27.9783 -4.18032
lfingers 7.12502
lthumb -1.36492 25.7951
rfemur -36.8699 -4.03058 21.3907
rtibia 36.9737
rfoot -14.481 1.9914
rtoes 10.8431
lfemur -36.6464 9.06036 -19.3335
ltibia 37.0009
lfoot -14.0066 3.03553
ltoes 5.01983
5
root 0.140472 17.1709 -15.3117 15.3505 -1.32574 -2.45316
lowerback 10.5723 -0.275751 0.698389
upperback 8.26833 -0.334754 1.39646
thorax 2.70096 -0.179688 1.08304
lowerneck -9.14271 0.780176 -0.750069
upperneck 21.8926 1.34926 -0.698566
head 8.28946 0.500235 0.023987
rclavicle -9.87711e-016 6.60959e-015
rhumerus -28.871 -7.28712 -82.2431
rradius 34.2245
rwrist 18.7002
rhand -20.7559 -27.5754
rfingers 7.12502
rthumb 5.61006 -57.4811
lclavicle -9.87711e-016 6.60959e-015
lhumerus -28.4468 -6.99012 90.2191
lradius 29.236
lwrist 18.7302
lhand -27.9182 -4.2033
lfingers 7.12502
lthumb -1.30687 25.7724
rfemur -36.8324 -4.05287 21.4251
rtibia 36.8585
rfoot -14.4333 1.99634
rtoes 10.9192
lfemur -36.6191 9.03884 -19.3094
ltibia 36.886
lfoot -13.9411 3.06356
ltoes 4.92295
6
root 0.13412 17.1764 -15.3089 15.3757 -1.28812 -2.45719
lowerback 10.5601 -0.285636 0.696202
upperback 8.28184 -0.348243 1.39946
thorax 2.72217 -0.186574 1.0884
lowerneck -9.10512 0.769931 -0.76399
upperneck 21.8787 1.33512 -0.690045
head 8.27771 0.49353 0.0275944
rclavicle -5.33923e-015 1.96921e-015
rhumerus -28.8743 -7.1931 -82.28
rradius 34.212
rwrist 18.6934
rhand -20.7259 -27.5674
rfingers 7.12502
rthumb 5.63895 -57.4724
lclavicle -5.33923e-015 1.96921e-015
lhumerus -28.4907 -7.19309 90.4054
lradius 29.3512
lwrist 18.7782
lhand -27.7816 -4.04915
lfingers 7.12502
lthumb -1.17501 25.9274
rfemur -36.7823 -4.07046 21.4606
rtibia 36.7394
rfoot -14.386 1.99102
rtoes 10.9789
lfemur -36.5762 9.00869 -19.2784
ltibia 36.7599
lfoot -13.8711 3.09996
ltoes 4.81272
7
root 0.127969 17.1821 -15.3056 15.3924 -1.25232 -2.46093
lowerback 10.5456 -0.294472 0.692942
upperback 8.29442 -0.360475 1.40383
thorax 2.74363 -0.192919 1.09566
lowerneck -9.08425 0.761944 -0.770843
upperneck 21.8875 1.32526 -0.690437
head 8.27681 0.488315 0.0275843
rclavicle -6.59406e-015 -6.33626e-015
rhumerus -28.8738 -7.1073 -82.3168
rradius 34.2009
rwrist 18.6878
rhand -20.695 -27.5642
rfingers 7.12502
rthumb 5.66879 -57.4684
lclavicle -6.59406e-015 -6.33626e-015
lhumerus -28.521 -7.38035 90.5854
lradius 29.5136
lwrist 18.8946
lhand -27.5397 -3.68013
lfingers 7.12502
lthumb -0.941384 26.2975
rfemur -36.7193 -4.08353 21.4933
rtibia 36.6178
rfoot -14.3393 1.97903
rtoes 11.0231
lfemur -36.5194 8.97221 -19.2441
ltibia 36.632
lfoot -13.8028 3.14229
ltoes 4.70266
8
root 0.12198 17.1879 -15.3019 15.4036 -1.22372 -2.46746
lowerback 10.5267 -0.300242 0.689976
upperback 8.30485 -0.368721 1.40875
thorax 2.76509 -0.197284 1.10299
lowerneck -9.07867 0.756695 -0.768674
upperneck 21.9184 1.32 -0.699788
head 8.2863 0.484893 0.0236273
rclavicle -1.07592e-014 3.91047e-015
rhumerus -28.874 -7.0306 -82.3543
rradius 34.1955
rwrist 18.6815
rhand -20.671 -27.5509
rfingers 7.12502
rthumb 5.69195 -57.4545
lclavicle -1.07592e-014 3.91047e-015
lhumerus -28.5469 -7.57189 90.7692
lradius 29.6912
lwrist 19.0428
lhand -27.3258 -3.32551
lfingers 7.12502
lthumb -0.734751 26.653
rfemur -36.6461 -4.08596 21.5255
rtibia 36.4908
rfoot -14.291 1.963
rtoes 11.0701
lfemur -36.4505 8.93536 -19.2048
ltibia 36.5005
lfoot -13.7368 3.18805
ltoes 4.59831
9
root 0.11615 17.1938 -15.2975 15.4079 -1.20434 -2.47598
lowerback 10.503 -0.301807 0.688594
upperback 8.31523 -0.371414 1.41181
thorax 2.78909 -0.198769 1.10702
lowerneck -9.08915 0.752083 -0.760804
upperneck 21.9665 1.31549 -0.711254
head 8.30458 0.481904 0.0181824
rclavicle 8.15794e-015 3.721e-015
rhumerus -28.8711 -6.96921 -82.3945
rradius 34.1919
rwrist 18.6804
rhand -20.6465 -27.5361
rfingers 7.12502
rthumb 5.71568 -57.439
lclavicle 8.15794e-015 3.721e-015
lhumerus -28.5703 -7.77296 90.9555
lradius 29.8685
lwrist 19.1853
lhand -27.2082 -3.14492
lfingers 7.12502
lthumb -0.621177 26.8339
rfemur -36.561 -4.07882 21.5562
rtibia 36.3587
rfoot -14.2415 1.94619
rtoes 11.1199
lfemur -36.3677 8.90015 -19.1617
ltibia 36.3654
lfoot -13.6718 3.23469
ltoes 4.49983
10
root 0.110476 17.2 -15.2924 15.4018 -1.19412 -2.48526
lowerback 10.4756 -0.300421 0.685507
upperback 8.32725 -0.37046 1.4138
thorax 2.81675 -0.198495 1.11058
lowerneck -9.10885 0.748258 -0.753154
upperneck 22.0237 1.31204 -0.721322
head 8.32765 0.479421 0.0133963
rclavicle -2.13538e-015 2.97866e-015
rhumerus -28.8632 -6.91646 -82.4375
rradius 34.1868
rwrist 18.6788
rhand -20.6323 -27.5058
rfingers 7.12502
rthumb 5.7294 -57.4083
lclavicle -2.13538e-015 2.97866e-015
lhumerus -28.5922 -7.97964 91.1437
lradius 30.0325
lwrist 19.2851
lhand -27.2264 -3.1776
lfingers 7.12502
lthumb -0.638775 26.8012
rfemur -36.4585 -4.06412 21.5842
rtibia 36.2218
rfoot -14.192 1.93073
rtoes 11.1752
lfemur -36.2652 8.86955 -19.1165
ltibia 36.2267
lfoot -13.6118 3.27894
ltoes 4.4309
11
root 0.104856 17.2064 -15.2865 15.3863 -1.18959 -2.49489
lowerback 10.444 -0.295754 0.682822
upperback 8.33978 -0.365227 1.41361
thorax 2.84712 -0.196015 1.11131
lowerneck -9.12708 0.74317 -0.748867
upperneck 22.0817 1.30524 -0.721348
head 8.35063 0.476075 0.0121916
rclavicle -1.76188e-015 -4.55186e-015
rhumerus -28.8578 -6.87378 -82.4858
rradius 34.1871
rwrist 18.6689
rhand -20.6267 -27.4727
rfingers 7.12502
rthumb 5.73475 -57.3751
lclavicle -1.76188e-015 -4.55186e-015
lhumerus -28.6147 -8.1894 91.3279
lradius 30.189
lwrist 19.3305
lhand -27.388 -3.42801
lfingers 7.12502
lthumb -0.794783 26.5503
rfemur -36.3417 -4.04233 21.6097
rtibia 36.0819
rfoot -14.1432 1.91359
rtoes 11.2372
lfemur -36.1463 8.84121 -19.0692
ltibia 36.0845
lfoot -13.5538 3.32262
ltoes 4.37205
12
root 0.0993288 17.2128 -15.28 15.3624 -1.18829 -2.50027
lowerback 10.4097 -0.289098 0.675656
upperback 8.35203 -0.357717 1.41164
thorax 2.87865 -0.192549 1.11252
lowerneck -9.1498 0.736054 -0.74412
upperneck 22.1434 1.29509 -0.718771
head 8.37566 0.471424 0.0114766
rclavicle -6.76334e-015 7.01492e-015
rhumerus -28.8547 -6.83612 -82.5388
rradius 34.1922
rwrist 18.6457
rhand -20.6347 -27.4362
rfingers 7.12502
rthumb 5.72702 -57.3388
lclavicle -6.76334e-015 7.01492e-015
lhumerus -28.6321 -8.38862 91.5028
lradius 30.3483
lwrist 19.3457
lhand -27.6055 -3.70584
lfingers 7.12502
lthumb -1.00492 26.2715
rfemur -36.213 -4.01808 21.6283
rtibia 35.9413
rfoot -14.0965 1.89517
rtoes 11.2969
lfemur -36.0125 8.81093 -19.0247
ltibia 35.9388
lfoot -13.4983 3.36606
ltoes 4.33585
13
root 0.093853 17.2192 -15.2732 15.3368 -1.18434 -2.50146
lowerback 10.3678 -0.282397 0.666402
upperback 8.36141 -0.350343 1.40949
thorax 2.91134 -0.189225 1.11469
lowerneck -9.16651 0.727175 -0.750541
upperneck 22.2019 1.28128 -0.702144
head 8.39836 0.465577 0.0169484
rclavicle -3.58783e-015 -7.73319e-015
rhumerus -28.8588 -6.79454 -82.5962
rradius 34.2108
rwrist 18.6063
rhand -20.6503 -27.4089
rfingers 7.12502
rthumb 5.71199 -57.312
lclavicle -3.58783e-015 -7.73319e-015
lhumerus -28.6441 -8.55822 91.6619
lradius 30.5238
lwrist 19.3411
lhand -27.8435 -3.97666
lfingers 7.12502
lthumb -1.23477 25.9995
rfemur -36.0822 -3.99411 21.6418
rtibia 35.8022
rfoot -14.0511 1.87156
rtoes 11.3488
lfemur -35.8744 8.77145 -18.9822
ltibia 35.7904
lfoot -13.4408 3.41168
ltoes 4.31377
